# xmcd CD database file
#
# Track frame offsets:
# 150
# 11791
# 24303
# 35119
# 44147
# 55679
# 65628
# 75912
# 86076
# 94337
# 106395
# 116973
# 128875
#
# Disc length: 1861 seconds
# Revision: 31
# Processed by: cddbd v1.5.2PL0 Copyright (c) Steve Scherf et al.
# Submitted via: MusicBin 0.4
#
DISCID=b307430d
DTITLE=Beatles - A Hard Day's Night (Mono)
DYEAR=1964
DGENRE=Rock
TTITLE0=A Hard Day's Night (Mono)
TTITLE1=I Should Have Known Better (Mono)
TTITLE2=If I Fell (Mono)
TTITLE3=I'm Happy Just To Dance With You (Mono)
TTITLE4=And I Love Her (Mono)
TTITLE5=Tell Me Why (Mono)
TTITLE6=Can't Buy Me Love (Mono)
TTITLE7=Any Time At All (Mono)
TTITLE8=I'll Cry Instead (Mono)
TTITLE9=Things We Said Today (Mono)
TTITLE10=When I Get Home (Mono)
TTITLE11=You Can't Do That (Mono)
TTITLE12=I'll Be Back (Mono)
EXTD=
EXTT0=
EXTT1=
EXTT2=
EXTT3=
EXTT4=
EXTT5=
EXTT6=
EXTT7=
EXTT8=
EXTT9=
EXTT10=
EXTT11=
EXTT12=
PLAYORDER=
